<svg width="800" height="1000" viewBox="0 0 800 1000" fill="none" xmlns="http://www.w3.org/2000/svg">
  <rect width="800" height="1000" rx="48" fill="#0F172A"/>
  <circle cx="600" cy="220" r="180" fill="url(#paint0_radial)"/>
  <circle cx="220" cy="780" r="220" fill="url(#paint1_radial)"/>
  <rect x="180" y="180" width="440" height="640" rx="36" fill="#111827" stroke="#38BDF8" stroke-width="6"/>
  <circle cx="400" cy="372" r="122" fill="#F4C59D"/>
  <path d="M272 350C272 286 322 235 390 235H410C478 235 528 286 528 350V380C528 442 480 495 418 495H382C320 495 272 442 272 380V350Z" fill="#1F2937"/>
  <path d="M264 676C286 602 348 560 400 560C452 560 514 602 536 676L552 736H248L264 676Z" fill="#F4C59D"/>
  <path d="M314 322C314 278 348 244 392 244H408C452 244 486 278 486 322V366C486 412 452 446 408 446H392C348 446 314 412 314 366V322Z" fill="#0F172A"/>
  <path d="M334 352C334 327 354 308 379 308H421C446 308 466 327 466 352V372C466 397 446 417 421 417H379C354 417 334 397 334 372V352Z" fill="#0F172A"/>
  <path d="M296 654C316 602 354 578 400 578C446 578 484 602 504 654" stroke="#F59E0B" stroke-width="14" stroke-linecap="round"/>
  <text x="400" y="860" text-anchor="middle" fill="#E2E8F0" font-family="Segoe UI, Arial, sans-serif" font-size="44" font-weight="700">DEVANANDHA S.</text>
  <defs>
    <radialGradient id="paint0_radial" cx="0" cy="0" r="1" gradientUnits="userSpaceOnUse" gradientTransform="translate(600 220) rotate(90) scale(180)">
      <stop stop-color="#22D3EE" stop-opacity="0.45"/>
      <stop offset="1" stop-color="#22D3EE" stop-opacity="0"/>
    </radialGradient>
    <radialGradient id="paint1_radial" cx="0" cy="0" r="1" gradientUnits="userSpaceOnUse" gradientTransform="translate(220 780) rotate(90) scale(220)">
      <stop stop-color="#A855F7" stop-opacity="0.45"/>
      <stop offset="1" stop-color="#A855F7" stop-opacity="0"/>
    </radialGradient>
  </defs>
</svg>
